HIERARCHY
ROOT Hips
{
	OFFSET -3.958830 18.904000 13.208200
	CHANNELS 6 Xposition Yposition Zposition Zrotation Yrotation Xrotation 
	JOINT LHipJoint
	{
		OFFSET 0.000000 0.000000 0.000000
		CHANNELS 3 Zrotation Yrotation Xrotation
		JOINT LeftUpLeg
		{
			OFFSET 1.800000 -1.400000 0.085000
			CHANNELS 3 Zrotation Yrotation Xrotation
			JOINT LeftLeg
			{
				OFFSET 2.215000 -6.000000 0.000000
				CHANNELS 3 Zrotation Yrotation Xrotation
				JOINT LeftFoot
				{
					OFFSET 2.500000 -6.900000 0.000000
					CHANNELS 3 Zrotation Yrotation Xrotation
					JOINT LeftToeBase
					{
						OFFSET 0.200000 -0.500000 1.950000
						CHANNELS 3 Zrotation Yrotation Xrotation
						End Site
						{
							OFFSET 0.000000 0.000000 0.000000
						}
					}
				}
			}
		}
	}
	JOINT RHipJoint
	{
		OFFSET 0.000000 0.000000 0.000000
		CHANNELS 3 Zrotation Yrotation Xrotation
		JOINT RightUpLeg
		{
			OFFSET -1.800000 -1.400000 0.085000
			CHANNELS 3 Zrotation Yrotation Xrotation
			JOINT RightLeg
			{
				OFFSET -2.215000 -6.000000 0.000000
				CHANNELS 3 Zrotation Yrotation Xrotation
				JOINT RightFoot
				{
					OFFSET -2.500000 -6.900000 0.000000
					CHANNELS 3 Zrotation Yrotation Xrotation
					JOINT RightToeBase
					{
						OFFSET -0.200000 -0.500000 1.950000
						CHANNELS 3 Zrotation Yrotation Xrotation
						End Site
						{
							OFFSET 0.000000 0.000000 0.000000
						}
					}
				}
			}
		}
	}
	JOINT LowerBack
	{
		OFFSET 0.000000 0.000000 0.000000
		CHANNELS 3 Zrotation Yrotation Xrotation
		JOINT Spine
		{
			OFFSET -0.087000 1.940000 -0.288900
			CHANNELS 3 Zrotation Yrotation Xrotation
			JOINT Spine1
			{
				OFFSET 0.000000 1.950000 0.060000
				CHANNELS 3 Zrotation Yrotation Xrotation
				JOINT Neck
				{
					OFFSET 0.000000 0.000000 0.000000
					CHANNELS 3 Zrotation Yrotation Xrotation
					JOINT Neck1
					{
						OFFSET 0.000000 1.600000 0.340000
						CHANNELS 3 Zrotation Yrotation Xrotation
						JOINT Head
						{
							OFFSET 0.000000 1.667000 -0.240000
							CHANNELS 3 Zrotation Yrotation Xrotation
							End Site
							{
								OFFSET 0.000000 0.000000 0.000000
							}
						}
					}
				}
				JOINT LeftShoulder
				{
					OFFSET 0.000000 0.000000 0.000000
					CHANNELS 3 Zrotation Yrotation Xrotation
					JOINT LeftArm
					{
						OFFSET 2.700000 1.550000 -0.730000
						CHANNELS 3 Zrotation Yrotation Xrotation
						JOINT LeftForeArm
						{
							OFFSET 5.450000 0.000000 0.000000
							CHANNELS 3 Zrotation Yrotation Xrotation
							JOINT LeftHand
							{
								OFFSET 3.450000 0.000000 0.000000
								CHANNELS 3 Zrotation Yrotation Xrotation
								JOINT LeftHandIndex1
								{
									OFFSET 0.750000 0.000000 0.000000
									CHANNELS 3 Zrotation Yrotation Xrotation
									End Site
									{
										OFFSET 0.000000 0.000000 0.000000
									}
								}
							}
						}
					}
				}
				JOINT RightShoulder
				{
					OFFSET 0.000000 0.000000 0.000000
					CHANNELS 3 Zrotation Yrotation Xrotation
					JOINT RightArm
					{
						OFFSET -2.700000 1.550000 -0.730000
						CHANNELS 3 Zrotation Yrotation Xrotation
						JOINT RightForeArm
						{
							OFFSET -5.450000 0.000000 0.000000
							CHANNELS 3 Zrotation Yrotation Xrotation
							JOINT RightHand
							{
								OFFSET -3.450000 0.000000 0.000000
								CHANNELS 3 Zrotation Yrotation Xrotation
								JOINT RightHandIndex1
								{
									OFFSET -0.750000 0.000000 0.000000
									CHANNELS 3 Zrotation Yrotation Xrotation
									End Site
									{
										OFFSET 0.000000 0.000000 0.000000
									}
								}
							}
						}
					}
				}
			}
		}
	}
}
MOTION
Frames: 12
Frame Time: 0.016667
-1.107610 17.016120 -0.071560 -3.397445 6.371208 3.586000 -15.154993 13.666488 2.838942 10.833048 -1.721988 -14.839974 -2.961663 4.232844 7.509776 -0.304454 3.626902 3.415259 -0.281670 -0.425490 -0.238260 18.163937 -11.144948 2.296516 -8.666905 1.193895 -19.156737 2.855122 -4.952269 20.034638 0.212305 -3.414639 3.185962 -0.117180 0.558040 0.131150 -3.545531 -2.077170 -6.936834 4.751531 -2.307364 5.927340 -5.850659 -1.562699 7.272191 1.332445 -2.421412 -8.089117 -7.747350 7.593557 44.408172 -2.901090 7.509340 10.859780 -21.563649 -11.040863 3.268587 -41.249663 -15.929849 -0.164312 7.386620 -20.886483 -2.263563 -4.200472 2.895468 -0.025100 0.422830 -0.312960 0.057390 19.082969 12.322307 3.821531 59.695976 14.651777 2.942196 0.096867 1.832350 0.037686 2.680473 -1.306469 -0.280760 0.144090 0.267660 -0.008390 
-1.121540 17.015100 -0.069360 -3.405303 6.575806 3.696543 -15.146601 13.664654 2.830888 10.849517 -1.754514 -15.070438 -2.788559 4.210781 7.672013 -0.311322 3.602332 3.425203 -0.278150 -0.417080 -0.242610 18.171710 -11.154413 2.293444 -8.856028 1.160581 -19.310292 2.754106 -4.901840 19.885230 0.218923 -3.388492 3.198599 -0.109520 0.562370 0.118600 -3.574050 -2.060010 -6.928807 4.900739 -2.429350 5.923093 -6.229124 -1.632953 7.362708 1.391306 -2.478804 -8.073097 -7.882997 7.492371 44.407991 -2.578150 7.047470 10.780880 -21.358121 -10.998526 3.225764 -41.841894 -16.258343 0.024716 6.896252 -20.951712 -2.187115 -4.193486 2.888201 -0.026500 0.418180 -0.316770 0.062730 18.723837 12.274172 3.822394 60.020789 14.824190 2.957857 -0.231726 2.223886 -0.017495 2.675502 -1.305167 -0.285500 0.157430 0.264270 -0.003510 
-1.169390 17.014430 -0.061080 -3.334236 6.901211 4.167284 -15.134289 13.609954 2.830937 10.985410 -1.847840 -15.535184 -2.674114 4.138292 7.502497 -0.324932 3.558225 3.434461 -0.273230 -0.406960 -0.254290 18.189161 -11.148481 2.290926 -9.561831 1.092205 -19.694689 2.924435 -4.845570 19.059701 0.232228 -3.321327 3.222248 -0.101130 0.564640 0.108140 -3.623705 -1.984141 -6.913668 5.146218 -2.486218 5.647827 -7.252042 -1.569329 7.745370 1.744197 -2.414889 -8.149093 -7.725346 7.293912 44.391163 -1.947410 6.308640 10.547280 -20.104690 -10.845143 3.258636 -44.391132 -17.068442 0.495199 6.036523 -21.555257 -2.143115 -4.181712 2.887819 -0.024590 0.410060 -0.320800 0.066160 16.702235 12.026644 3.866076 62.097545 15.252195 2.937467 -1.200307 3.387559 -0.173747 2.651018 -1.313586 -0.286900 0.168400 0.267480 0.001540 
-1.230530 17.005110 -0.063620 -3.387178 6.899343 4.576373 -15.101606 13.553014 2.809773 11.182142 -1.966488 -16.281287 -2.216946 4.055699 7.873573 -0.356396 3.495345 3.440905 -0.266040 -0.404710 -0.239620 18.218249 -11.172813 2.323177 -10.511941 1.071022 -20.501018 3.303426 -4.908619 18.566528 0.232940 -3.284504 3.217607 -0.098930 0.547300 0.108590 -3.716369 -1.819245 -6.929600 5.748917 -2.469920 5.574092 -9.115168 -1.299957 8.507990 2.633219 -1.923963 -8.537279 -6.733418 6.772026 45.089723 -2.010260 5.971990 10.177910 -18.463474 -11.528232 3.492738 -46.772281 -18.360977 1.209131 5.271923 -21.288530 -2.061737 -4.174651 2.880389 -0.005180 0.397250 -0.307280 0.059070 13.203844 12.312172 4.252740 65.061108 16.115110 3.110620 -0.920827 5.686706 -0.359281 2.607003 -1.322584 -0.288700 0.170100 0.268050 -0.008020 
-1.307790 16.998870 -0.065430 -3.033565 6.796936 4.940071 -15.089846 13.547200 2.779131 11.100285 -2.102054 -17.126677 -1.699587 4.048589 8.978699 -0.389959 3.439400 3.438110 -0.249480 -0.388500 -0.213800 18.223386 -11.185425 2.353962 -11.803521 0.961841 -21.330284 3.460721 -4.884509 17.809623 0.233204 -3.218266 3.222929 -0.090440 0.520310 0.105730 -3.743570 -1.753840 -6.940900 5.811941 -2.682819 5.593121 -11.427552 -1.156927 9.362666 3.732690 -1.496270 -8.985436 -5.918055 6.819326 46.517853 -2.088720 6.230560 9.818470 -16.976550 -12.238651 3.714878 -49.036495 -19.660491 1.867509 5.084668 -20.906879 -2.089795 -4.163410 2.872125 0.018500 0.381720 -0.286630 0.050270 9.469759 12.657904 4.597642 68.147282 17.583965 3.699000 0.515056 8.304632 -0.460451 2.556034 -1.336173 -0.288730 0.171450 0.262000 -0.022850 
-1.400580 17.010960 -0.063690 -2.967579 6.543433 5.000394 -15.063760 13.516766 2.767025 11.490779 -2.162367 -17.503132 -1.465334 4.049758 9.433564 -0.392474 3.403323 3.423527 -0.213860 -0.350120 -0.156140 18.239593 -11.198709 2.397514 -12.761495 0.886886 -21.870825 3.760766 -4.896182 17.136370 0.215964 -3.171080 3.217088 -0.079740 0.462410 0.106910 -3.804254 -1.632577 -6.998605 6.287231 -2.947858 5.818099 -13.895380 -0.991232 10.272493 5.135253 -0.826814 -9.569914 -4.630476 6.790018 49.247771 -2.677350 6.967330 9.768680 -17.231774 -13.735550 4.073004 -49.851892 -20.674195 2.021647 5.910439 -20.562662 -2.292942 -4.134134 2.877989 0.036580 0.356850 -0.246820 0.038220 6.872492 13.667083 5.047627 68.977600 19.444723 4.840286 3.599442 10.454917 -0.259060 2.530390 -1.361617 -0.269110 0.151650 0.232170 -0.041670 
-1.499930 17.015200 -0.055740 -2.721958 6.278258 5.253476 -15.089372 13.529915 2.788791 11.898458 -2.257328 -18.065460 -1.561556 4.122493 9.896495 -0.415888 3.422739 3.386207 -0.167940 -0.296300 -0.108170 18.214339 -11.132970 2.414137 -13.689694 0.851646 -22.741736 3.757294 -4.881167 16.945825 0.198602 -3.131632 3.200282 -0.048660 0.423270 0.120530 -3.724822 -1.748123 -7.046396 5.970668 -3.388327 6.154842 -15.554811 -1.055352 10.988991 6.252782 -0.505578 -9.839578 -3.926048 7.398691 50.191713 -2.977950 7.983850 8.683310 -17.186407 -14.410357 4.025625 -51.102101 -22.150494 2.715522 7.040029 -19.140363 -2.484976 -4.138214 2.891798 0.055810 0.344670 -0.213960 0.031930 4.585422 14.000224 5.218195 67.809434 21.147213 5.723159 9.160470 13.568489 0.299217 2.475494 -1.400452 -0.255310 0.141140 0.213650 -0.059840 
-1.593840 17.015280 -0.047550 -2.734513 5.799213 5.259608 -15.085302 13.534991 2.805281 12.778047 -2.262532 -18.229005 -1.922788 4.291735 10.260149 -0.431338 3.511139 3.327088 -0.136820 -0.260810 -0.062780 18.218143 -11.089356 2.425118 -14.558291 0.816360 -23.842626 3.515864 -4.930745 17.424674 0.181623 -3.126446 3.171665 -0.027000 0.386490 0.129380 -3.726523 -1.804989 -7.103156 6.414646 -3.854590 6.631900 -17.598889 -1.115172 11.479577 7.438174 -0.254703 -9.990550 -3.482027 7.924246 51.537346 -3.648180 8.958810 7.838370 -17.742179 -14.605489 3.680597 -51.555236 -23.582625 3.451987 6.985680 -17.741690 -2.388013 -4.150714 2.883039 0.077560 0.334550 -0.183080 0.020110 2.683037 13.774400 5.406796 65.616932 21.974728 5.606912 16.153974 18.658716 1.389827 2.403533 -1.457166 -0.249330 0.136140 0.201250 -0.080460 
-1.694510 16.997780 -0.032040 -2.776426 5.466198 5.341590 -15.097213 13.540458 2.852593 14.003768 -2.243310 -18.442785 -2.650882 4.550553 10.386522 -0.397874 3.644820 3.265016 -0.121620 -0.239490 -0.050300 18.213718 -10.992536 2.425905 -15.279343 0.819543 -24.967302 3.383166 -5.046962 18.255362 0.173891 -3.164327 3.142924 -0.021750 0.376820 0.138980 -3.693161 -1.976154 -7.171116 6.862984 -4.434459 7.003203 -18.852474 -1.361376 11.923227 8.273730 -0.354578 -10.307675 -3.960664 8.603503 52.331283 -3.942380 9.409190 8.069640 -17.630525 -14.868096 3.614454 -52.927685 -24.751771 4.331867 5.973428 -17.203174 -2.161230 -4.147777 2.909827 0.066730 0.336280 -0.172340 0.025930 0.821089 13.907455 5.628406 61.841929 22.349077 5.094777 23.922165 23.975665 3.234240 2.349062 -1.555940 -0.232260 0.123450 0.185770 -0.075440 
-1.790870 16.955860 -0.013590 -2.724908 5.024163 5.605658 -15.128318 13.575917 2.879441 14.776601 -2.191067 -18.487012 -2.805030 4.598563 10.042077 -0.395434 3.701224 3.234712 -0.093120 -0.197410 -0.051120 18.200730 -10.860015 2.432421 -16.222028 0.840001 -26.500848 3.368817 -5.399066 20.251387 0.152283 -3.324562 3.064638 0.004950 0.373950 0.137940 -3.615662 -2.266154 -7.214291 7.172790 -5.023526 7.277064 -19.191461 -1.745566 12.166588 8.657882 -0.987533 -10.459712 -5.685597 9.560831 51.929266 -3.674610 9.072560 7.445670 -16.466474 -14.629521 3.386580 -56.386880 -26.258657 6.043694 5.352123 -15.566258 -1.978996 -4.142716 2.938174 0.065510 0.328500 -0.166120 0.039540 -1.163069 13.887447 5.710110 57.241510 22.239413 4.324134 31.734371 29.276463 5.816741 2.280770 -1.660623 -0.223730 0.132000 0.176000 -0.065890 
-1.894630 16.932470 -0.012660 -2.576670 4.907374 5.770993 -15.171602 13.621948 2.914388 15.415274 -2.169176 -18.854931 -2.771559 4.616725 9.888488 -0.403481 3.729660 3.212690 -0.056680 -0.155380 -0.040580 18.175326 -10.706954 2.463633 -17.102046 0.875990 -27.913434 3.586209 -5.883052 22.487246 0.118781 -3.549112 2.966231 0.032430 0.362720 0.127220 -3.508484 -2.613437 -7.291462 7.232228 -5.539772 7.933048 -18.891529 -2.076982 12.370165 8.832812 -1.672755 -10.788811 -7.938693 10.441170 52.460802 -3.270780 8.261560 6.970980 -15.009643 -14.714139 3.337002 -60.250777 -28.113276 8.000278 3.650393 -15.191695 -1.719838 -4.101709 2.970983 0.076840 0.307680 -0.156790 0.053320 -2.956614 14.281906 5.827497 51.479505 21.625503 3.420987 40.411895 34.373612 9.375155 2.224536 -1.755114 -0.219800 0.147630 0.161220 -0.060870 
-2.002380 16.913230 -0.022170 -2.792924 4.893537 5.890869 -15.206048 13.694143 2.956362 16.230502 -2.144804 -19.646894 -2.556307 4.704862 10.419106 -0.420184 3.794398 3.162593 -0.034650 -0.130730 -0.034800 18.156653 -10.552802 2.504428 -17.144128 1.056635 -29.314801 3.332752 -6.245894 24.883488 0.087624 -3.759571 2.872088 0.051550 0.352040 0.133000 -3.427289 -2.995389 -7.392248 7.747623 -6.294877 8.908396 -18.577782 -2.642357 12.500216 9.126947 -2.241396 -11.121327 -9.884899 11.266486 52.362494 -3.277110 7.670370 6.270530 -14.019112 -15.301184 3.410797 -63.400418 -30.049686 9.801186 3.827414 -13.759416 -1.701514 -4.089062 3.013742 0.083750 0.297510 -0.149020 0.051700 -4.545218 15.002118 5.869743 44.807655 20.926991 2.625718 49.456736 39.322245 13.944264 2.173459 -1.835743 -0.211740 0.151860 0.165260 -0.060530 
